# xmcd
# 
# Track frame offsets:
#   150
#   20175
#   37800
#   57075
#   75600
#   93450
#   111300
#   127125
#   144750
#   162450
#   180375
#   196575
#   212250
#   229950
#   251550
#   268725
# 
# Disc length: 3845 seconds
# 
# Revision: 0
# Processed by: cddbd v1.5.1PL2 Copyright (c) Steve Scherf et al.
# Submitted via: Synapstar 1.0 
# 
DISCID=d60f0310
DTITLE=Various Artist - POWERHITS 2003
DYEAR=1900
DGENRE=Country
TTITLE0=ALAN JACKSON - REMEMBER WHEN
TTITLE1=TOBY KEITH - AMERICAN SOLDIER
TTITLE2=TIM MCGRAW - WATCH THE WIND BLOW BY
TTITLE3=KENNY CHESNEY - THERE GOES MY LIFE
TTITLE4=GARY ALLAN - SONGS ABOUT RAIN
TTITLE5=DARRYL WORLEY - HAVE YOU FORGOTTEN
TTITLE6=BUDDY JEWEL - SWEET SOUTHERN COMFORT
TTITLE7=RASCAL FLATS - I MELT
TTITLE8=GARY ALLAN - TOUGH LITTLE BOYS
TTITLE9=JEFF BATES - THE LOVE SONG
TTITLE10=GEORGE STRAIT - COWBOYS LIKE US
TTITLE11=DIAMOND RIO - I BELIEVE
TTITLE12=TIM MCGRAW - SHE'S MY KIND OF RAIN
TTITLE13=CRAIG MORGAN - ALMOST HOME
TTITLE14=BRAD PAISLEY - LITTLE MOMENTS
TTITLE15=RODNEY ATKINS - HONESTY (WRITE ME A LIST)
EXTD=MediaType: Karaoke CD+G Producer: All Hits
EXTT0=
EXTT1=
EXTT2=
EXTT3=
EXTT4=
EXTT5=
EXTT6=
EXTT7=
EXTT8=
EXTT9=
EXTT10=
EXTT11=
EXTT12=
EXTT13=
EXTT14=
EXTT15=
PLAYORDER=
